<svg width="22" height="20" viewBox="0 0 22 20" fill="none" xmlns="http://www.w3.org/2000/svg">
<path d="M10.8008 2.22729C15.6255 2.22729 19.5508 5.22931 19.5508 8.91793C19.5508 12.6074 15.6308 15.6094 10.813 15.6094C10.2705 15.6094 9.85753 15.5697 9.27391 15.5257C8.39891 16.1959 7.72166 16.7374 6.22453 17.2201C6.45203 16.0257 6.12566 15.2692 5.77478 14.4055C3.68966 13.1057 2.05078 11.4596 2.05078 8.91793C2.05078 5.22931 5.97603 2.22729 10.8008 2.22729ZM10.8008 0.5C5.00216 0.5 0.300781 4.26808 0.300781 8.91793C0.300781 11.6211 1.88978 14.0272 4.36166 15.5671C5.12028 17.4386 3.41316 19.0286 1.61153 19.4552C4.31091 19.685 7.54053 19.0398 9.81378 17.2987C16.0088 17.7651 21.3008 13.8545 21.3008 8.91793C21.3008 4.26808 16.5994 0.5 10.8008 0.5Z" fill="#268CA3"/>
</svg>
