<svg width="24" height="24" viewBox="0 0 24 24" fill="none" xmlns="http://www.w3.org/2000/svg">
<g clip-path="url(#clip0_790_5738)">
<path d="M23 24.0001L16.293 21.5731L11 24.0001L5.419 21.5731L-1 24.0001L3 15.0001L6.96 13.4161C7.34 13.9321 7.701 14.4961 8.021 15.1451L4.498 16.5551L2.773 20.4351L5.445 19.4251L6.951 16.7381L6.316 19.7821L10.505 21.5711L11 19.5501L11.465 21.5741L15.615 19.6841L14.997 16.6511L16.569 19.5471L19.301 20.5361L17.562 16.5581L13.981 15.1431C14.3 14.4931 14.662 13.9281 15.043 13.4121L19.064 15.0001L23 24.0001Z" fill="#F2F5F7"/>
<path fill-rule="evenodd" clip-rule="evenodd" d="M11 7.86523C9.065 7.86523 7.5 9.21866 7.5 10.8921C7.5 13.1622 11 16.5133 11 16.5133C11 16.5133 14.5 13.1622 14.5 10.8921C14.5 9.21866 12.935 7.86523 11 7.86523ZM10.9998 11.9747C10.3098 11.9747 9.74981 11.4904 9.74981 10.8937C9.74981 10.297 10.3098 9.81267 10.9998 9.81267C11.6898 9.81267 12.2498 10.297 12.2498 10.8937C12.2498 11.4904 11.6898 11.9747 10.9998 11.9747Z" fill="#C2D1D9"/>
<mask id="mask0_790_5738" style="mask-type:alpha" maskUnits="userSpaceOnUse" x="7" y="7" width="8" height="10">
<path fill-rule="evenodd" clip-rule="evenodd" d="M11 7.86523C9.065 7.86523 7.5 9.21866 7.5 10.8921C7.5 13.1622 11 16.5133 11 16.5133C11 16.5133 14.5 13.1622 14.5 10.8921C14.5 9.21866 12.935 7.86523 11 7.86523ZM10.9998 11.9747C10.3098 11.9747 9.74981 11.4904 9.74981 10.8937C9.74981 10.297 10.3098 9.81267 10.9998 9.81267C11.6898 9.81267 12.2498 10.297 12.2498 10.8937C12.2498 11.4904 11.6898 11.9747 10.9998 11.9747Z" fill="white"/>
</mask>
<g mask="url(#mask0_790_5738)">
<rect x="5" y="7" width="12" height="10.3777" fill="#F2F5F7"/>
</g>
</g>
<defs>
<clipPath id="clip0_790_5738">
<rect width="24" height="24" fill="white"/>
</clipPath>
</defs>
</svg>
